{"title":"The.Three.Musketeers.2011.PL.BRRip.AC3.XviD-RLF","uid":7091484,"size":1556933102,"categoryP":"video","categoryS":"movies","magnet":"?xt=urn:btih:7dbf93190b942d2b3729705d187ad389934f67da&amp;dn=The.Three.Musketeers.2011.PL.BRRip.AC3.XviD-RLF&amp;tr=udp%3A%2F%2Ftracker.openbittorrent.com%3A80&amp;tr=udp%3A%2F%2Fopen.demonii.com%3A1337&amp;tr=udp%3A%2F%2Ftracker.coppersurfer.tk%3A6969&amp;tr=udp%3A%2F%2Fexodus.desync.com%3A6969","seeders":0,"leechers":1,"uploader":"rlf-rls","files":-1,"time":1331337822,"description":"The.Three.Musketeers.2011.PL.BRRip.AC3.XviD-RLF\n~~~~~~~~~~~~~~~~~~~~~~~~~~~~~~~~~~~~~~~~~~~~~~~                                            \nGENERAL\n\nComplete name                    : rlf-musketeers-pl.avi\nFormat                           : AVI\nFormat/Info                      : Audio Video Interleave\nFile size                        : 1.43 GiB\nDuration                         : 1h 50mn\nOverall bit rate                 : 1 866 Kbps\nLanguage                         : Polish\nSubs                             : None \nEncoder                          : Ralf\n\nVideo:\n\nFormat                           : MPEG-4 Visual\nFormat profile                   : Advanced Simple@L5\nFormat settings, BVOP            : 2\nFormat settings, QPel            : No\nFormat settings, GMC             : No warppoints\nFormat settings, Matrix          : H.263\nMuxing mode                      : Packed bitstream\nCodec ID                         : XVID\nDuration                         : 1h 50mn\nBit rate                         : 1 633 Kbps\nWidth                            : 688 pixels\nHeight                           : 288 pixels\nDisplay aspect ratio             : 2.35:1\nFrame rate                       : 23.976 fps\nColor space                      : YUV\nChroma subsampling               : 4:2:0\nBit depth                        : 8 bits\nScan type                        : Progressive\nBits/(Pixel*Frame)               : 0.344\nStream size                      : 1.25 GiB (87%)      \nStream size                      : Xvid 63\n\nAudio:\n\nFormat                           : AC-3\nFormat/Info                      : Audio Coding 3\nDuration                         : 1h 50mn\nBit rate mode                    : Constant\nBit rate                         : 224 Kbps\nChannel(s)                       : 6 channels\nChannel positions                : Front: L C R, Side: L R, LFE\nSampling rate                    : 48.0 KHz\nBit depth                        : 16 bits\nStream size                      : 177 MiB (12%)\nAlignment                        : Split accross interleaves\nInterleave, duration             : 42 ms (1.00 video frame)\nInterleave, preload duration     : 500 ms\n\nMOVIE INFO\n\nTrojka oslawionych muszkieterow Atos, Portos i Aramis zostaje odsunieta \nw cien za sprawa spisku tajemniczej Milady. Trzy lata pozniej do Paryza \nprzyjezdza mlody chlopak o nazwisku DÄºArtagnan, gdzie dolacza do slynnych \nszermierzy. W tym samym czasie przebiegly kardynal Richelieu planuje \nspisek w celu zdobycia krolewskiej korony.\n                                            &lt;a href=&quot;\nhttp://www.imdb.com/title/?tt1509767/&quot; rel=&quot;nofollow&quot; target=&quot;_NEW&quot;&gt;\nhttp://www.imdb.com/title/?tt1509767/&lt;/a&gt;  &lt;a href=&quot;\nhttp://www.filmweb.pl/film/?Trzej+muszkieterowie+3D-2011-48?5468&quot; rel=&quot;nofollow&quot; target=&quot;_NEW&quot;&gt;\nhttp://www.filmweb.pl/film/?Trzej+muszkieterowie+3D-2011-48?5468&lt;/a&gt;\n\n                                               \nSOURCE\n\nEHLE's 1080p.BluRay.x264 / DVDSEED's AC3 5.1 (THX)\n\nSCREENS\n &lt;a href=&quot;\nhttp://www.postimg.com/60000/photo-59259.jpg&quot; rel=&quot;nofollow&quot; target=&quot;_NEW&quot;&gt;\nhttp://www.postimg.com/60000/photo-59259.jpg&lt;/a&gt; &lt;a href=&quot;\nhttp://www.postimg.com/60000/photo-59257.jpg&quot; rel=&quot;nofollow&quot; target=&quot;_NEW&quot;&gt;\nhttp://www.postimg.com/60000/photo-59257.jpg&lt;/a&gt; &lt;a href=&quot;\nhttp://www.postimg.com/60000/photo-59256.jpg&quot; rel=&quot;nofollow&quot; target=&quot;_NEW&quot;&gt;\nhttp://www.postimg.com/60000/photo-59256.jpg&lt;/a&gt; &lt;a href=&quot;\nhttp://www.postimg.com/60000/photo-59260.jpg&quot; rel=&quot;nofollow&quot; target=&quot;_NEW&quot;&gt;\nhttp://www.postimg.com/60000/photo-59260.jpg&lt;/a&gt; &lt;a href=&quot;\nhttp://www.postimg.com/60000/photo-59258.jpg&quot; rel=&quot;nofollow&quot; target=&quot;_NEW&quot;&gt;\nhttp://www.postimg.com/60000/photo-59258.jpg&lt;/a&gt;","torrent":{"xt":"urn:btih:7dbf93190b942d2b3729705d187ad389934f67da","amp;dn":"The.Three.Musketeers.2011.PL.BRRip.AC3.XviD-RLF","amp;tr":["udp%3A%2F%2Ftracker.openbittorrent.com%3A80","udp%3A%2F%2Fopen.demonii.com%3A1337","udp%3A%2F%2Ftracker.coppersurfer.tk%3A6969","udp%3A%2F%2Fexodus.desync.com%3A6969"],"infoHash":"7dbf93190b942d2b3729705d187ad389934f67da","infoHashBuffer":{"type":"Buffer","data":[125,191,147,25,11,148,45,43,55,41,112,93,24,122,211,137,147,79,103,218]},"announce":[],"urlList":[]}}